<svg class="main-svg" xmlns="http://www.w3.org/2000/svg" xmlns:xlink="http://www.w3.org/1999/xlink" width="700" height="500" viewBox="0 0 700 500"><rect x="0" y="0" width="700" height="500" style="fill: rgb(255, 255, 255); fill-opacity: 1;"/><defs id="defs-44f1e0"><g class="clips"><clipPath id="clip44f1e0xyplot" class="plotclip"><rect width="540" height="320"/></clipPath><clipPath class="axesclip" id="clip44f1e0x"><rect x="80" y="0" width="540" height="500"/></clipPath><clipPath class="axesclip" id="clip44f1e0y"><rect x="0" y="100" width="700" height="320"/></clipPath><clipPath class="axesclip" id="clip44f1e0xy"><rect x="80" y="100" width="540" height="320"/></clipPath></g><g class="gradients"/></defs><g class="bglayer"/><g class="layer-below"><g class="imagelayer"/><g class="shapelayer"/></g><g class="cartesianlayer"><g class="subplot xy"><g class="layer-subplot"><g class="shapelayer"/><g class="imagelayer"/></g><g class="gridlayer"><g class="x"><path class="xgrid crisp" transform="translate(178.25,0)" d="M0,100v320" style="stroke: rgb(238, 238, 238); stroke-opacity: 1; stroke-width: 1px;"/><path class="xgrid crisp" transform="translate(342.9,0)" d="M0,100v320" style="stroke: rgb(238, 238, 238); stroke-opacity: 1; stroke-width: 1px;"/><path class="xgrid crisp" transform="translate(507.54,0)" d="M0,100v320" style="stroke: rgb(238, 238, 238); stroke-opacity: 1; stroke-width: 1px;"/></g><g class="y"><path class="ygrid crisp" transform="translate(0,384.16)" d="M80,0h540" style="stroke: rgb(238, 238, 238); stroke-opacity: 1; stroke-width: 1px;"/><path class="ygrid crisp" transform="translate(0,346.35)" d="M80,0h540" style="stroke: rgb(238, 238, 238); stroke-opacity: 1; stroke-width: 1px;"/><path class="ygrid crisp" transform="translate(0,308.53999999999996)" d="M80,0h540" style="stroke: rgb(238, 238, 238); stroke-opacity: 1; stroke-width: 1px;"/><path class="ygrid crisp" transform="translate(0,270.74)" d="M80,0h540" style="stroke: rgb(238, 238, 238); stroke-opacity: 1; stroke-width: 1px;"/><path class="ygrid crisp" transform="translate(0,232.93)" d="M80,0h540" style="stroke: rgb(238, 238, 238); stroke-opacity: 1; stroke-width: 1px;"/><path class="ygrid crisp" transform="translate(0,195.12)" d="M80,0h540" style="stroke: rgb(238, 238, 238); stroke-opacity: 1; stroke-width: 1px;"/><path class="ygrid crisp" transform="translate(0,157.31)" d="M80,0h540" style="stroke: rgb(238, 238, 238); stroke-opacity: 1; stroke-width: 1px;"/><path class="ygrid crisp" transform="translate(0,119.5)" d="M80,0h540" style="stroke: rgb(238, 238, 238); stroke-opacity: 1; stroke-width: 1px;"/></g></g><g class="zerolinelayer"/><path class="xlines-below"/><path class="ylines-below"/><g class="overlines-below"/><g class="xaxislayer-below"/><g class="yaxislayer-below"/><g class="overaxes-below"/><g class="plot" transform="translate(80, 100)" clip-path="url('#clip44f1e0xyplot')"><g class="scatterlayer mlayer"><g class="trace scatter trace06dbdc4a-07be-4222-9f4f-0df7b0cf65b7" style="stroke-miterlimit: 2; opacity: 1;"><g class="fills"/><g class="errorbars"/><g class="lines"/><g class="points"><path class="point" transform="translate(143.3,234.33)" d="M8,0A8,8 0 1,1 0,-8A8,8 0 0,1 8,0Z" style="opacity: 0.8; stroke-width: 0px; fill: rgb(68, 2, 85); fill-opacity: 1;"/><path class="point" transform="translate(194.1,84.93)" d="M8,0A8,8 0 1,1 0,-8A8,8 0 0,1 8,0Z" style="opacity: 0.8; stroke-width: 0px; fill: rgb(71, 37, 117); fill-opacity: 1;"/><path class="point" transform="translate(371,144.63)" d="M8,0A8,8 0 1,1 0,-8A8,8 0 0,1 8,0Z" style="opacity: 0.8; stroke-width: 0px; fill: rgb(57, 86, 139); fill-opacity: 1;"/><path class="point" transform="translate(428.82,133.84)" d="M8,0A8,8 0 1,1 0,-8A8,8 0 0,1 8,0Z" style="opacity: 0.8; stroke-width: 0px; fill: rgb(47, 107, 142); fill-opacity: 1;"/><path class="point" transform="translate(345.51,108.24)" d="M8,0A8,8 0 1,1 0,-8A8,8 0 0,1 8,0Z" style="opacity: 0.8; stroke-width: 0px; fill: rgb(63, 73, 136); fill-opacity: 1;"/><path class="point" transform="translate(444.39,170.36)" d="M8,0A8,8 0 1,1 0,-8A8,8 0 0,1 8,0Z" style="opacity: 0.8; stroke-width: 0px; fill: rgb(32, 152, 138); fill-opacity: 1;"/><path class="point" transform="translate(300.82,115.78)" d="M8,0A8,8 0 1,1 0,-8A8,8 0 0,1 8,0Z" style="opacity: 0.8; stroke-width: 0px; fill: rgb(70, 51, 126); fill-opacity: 1;"/><path class="point" transform="translate(459,189.38)" d="M8,0A8,8 0 1,1 0,-8A8,8 0 0,1 8,0Z" style="opacity: 0.8; stroke-width: 0px; fill: rgb(40, 174, 128); fill-opacity: 1;"/><path class="point" transform="translate(146.03,101.55)" d="M8,0A8,8 0 1,1 0,-8A8,8 0 0,1 8,0Z" style="opacity: 0.8; stroke-width: 0px; fill: rgb(72, 29, 110); fill-opacity: 1;"/><path class="point" transform="translate(417.86,189.82)" d="M8,0A8,8 0 1,1 0,-8A8,8 0 0,1 8,0Z" style="opacity: 0.8; stroke-width: 0px; fill: rgb(48, 105, 141); fill-opacity: 1;"/><path class="point" transform="translate(378.91,113.75)" d="M8,0A8,8 0 1,1 0,-8A8,8 0 0,1 8,0Z" style="opacity: 0.8; stroke-width: 0px; fill: rgb(59, 83, 139); fill-opacity: 1;"/><path class="point" transform="translate(437.66,195.8)" d="M8,0A8,8 0 1,1 0,-8A8,8 0 0,1 8,0Z" style="opacity: 0.8; stroke-width: 0px; fill: rgb(37, 132, 142); fill-opacity: 1;"/><path class="point" transform="translate(220.93,46.39)" d="M8,0A8,8 0 1,1 0,-8A8,8 0 0,1 8,0Z" style="opacity: 0.8; stroke-width: 0px; fill: rgb(71, 41, 120); fill-opacity: 1;"/><path class="point" transform="translate(239.82,65.61)" d="M8,0A8,8 0 1,1 0,-8A8,8 0 0,1 8,0Z" style="opacity: 0.8; stroke-width: 0px; fill: rgb(71, 41, 119); fill-opacity: 1;"/><path class="point" transform="translate(276.2,74.19)" d="M8,0A8,8 0 1,1 0,-8A8,8 0 0,1 8,0Z" style="opacity: 0.8; stroke-width: 0px; fill: rgb(68, 55, 129); fill-opacity: 1;"/><path class="point" transform="translate(60.12,85.29)" d="M8,0A8,8 0 1,1 0,-8A8,8 0 0,1 8,0Z" style="opacity: 0.8; stroke-width: 0px; fill: rgb(71, 17, 99); fill-opacity: 1;"/><path class="point" transform="translate(290.48,140.17)" d="M8,0A8,8 0 1,1 0,-8A8,8 0 0,1 8,0Z" style="opacity: 0.8; stroke-width: 0px; fill: rgb(69, 53, 128); fill-opacity: 1;"/><path class="point" transform="translate(412.97,158.3)" d="M8,0A8,8 0 1,1 0,-8A8,8 0 0,1 8,0Z" style="opacity: 0.8; stroke-width: 0px; fill: rgb(50, 101, 141); fill-opacity: 1;"/><path class="point" transform="translate(73.88,207.97)" d="M8,0A8,8 0 1,1 0,-8A8,8 0 0,1 8,0Z" style="opacity: 0.8; stroke-width: 0px; fill: rgb(69, 5, 88); fill-opacity: 1;"/><path class="point" transform="translate(259.97,92.94)" d="M8,0A8,8 0 1,1 0,-8A8,8 0 0,1 8,0Z" style="opacity: 0.8; stroke-width: 0px; fill: rgb(71, 45, 123); fill-opacity: 1;"/><path class="point" transform="translate(312.22,154.8)" d="M8,0A8,8 0 1,1 0,-8A8,8 0 0,1 8,0Z" style="opacity: 0.8; stroke-width: 0px; fill: rgb(68, 55, 129); fill-opacity: 1;"/><path class="point" transform="translate(108.89,70.41)" d="M8,0A8,8 0 1,1 0,-8A8,8 0 0,1 8,0Z" style="opacity: 0.8; stroke-width: 0px; fill: rgb(72, 27, 109); fill-opacity: 1;"/><path class="point" transform="translate(53.23,177.91)" d="M8,0A8,8 0 1,1 0,-8A8,8 0 0,1 8,0Z" style="opacity: 0.8; stroke-width: 0px; fill: rgb(69, 8, 91); fill-opacity: 1;"/><path class="point" transform="translate(398.69,135.71)" d="M8,0A8,8 0 1,1 0,-8A8,8 0 0,1 8,0Z" style="opacity: 0.8; stroke-width: 0px; fill: rgb(57, 85, 139); fill-opacity: 1;"/><path class="point" transform="translate(235.29,93.4)" d="M8,0A8,8 0 1,1 0,-8A8,8 0 0,1 8,0Z" style="opacity: 0.8; stroke-width: 0px; fill: rgb(71, 38, 117); fill-opacity: 1;"/><path class="point" transform="translate(503,201.48)" d="M8,0A8,8 0 1,1 0,-8A8,8 0 0,1 8,0Z" style="opacity: 0.8; stroke-width: 0px; fill: rgb(66, 189, 113); fill-opacity: 1;"/><path class="point" transform="translate(77.74,185.33)" d="M8,0A8,8 0 1,1 0,-8A8,8 0 0,1 8,0Z" style="opacity: 0.8; stroke-width: 0px; fill: rgb(69, 7, 90); fill-opacity: 1;"/><path class="point" transform="translate(106.34,26.57)" d="M8,0A8,8 0 1,1 0,-8A8,8 0 0,1 8,0Z" style="opacity: 0.8; stroke-width: 0px; fill: rgb(72, 22, 104); fill-opacity: 1;"/><path class="point" transform="translate(141.92,51.67)" d="M8,0A8,8 0 1,1 0,-8A8,8 0 0,1 8,0Z" style="opacity: 0.8; stroke-width: 0px; fill: rgb(72, 28, 109); fill-opacity: 1;"/><path class="point" transform="translate(345.9,163.02)" d="M8,0A8,8 0 1,1 0,-8A8,8 0 0,1 8,0Z" style="opacity: 0.8; stroke-width: 0px; fill: rgb(64, 70, 136); fill-opacity: 1;"/><path class="point" transform="translate(278.77,122.27)" d="M8,0A8,8 0 1,1 0,-8A8,8 0 0,1 8,0Z" style="opacity: 0.8; stroke-width: 0px; fill: rgb(68, 55, 129); fill-opacity: 1;"/><path class="point" transform="translate(177.96,66.43)" d="M8,0A8,8 0 1,1 0,-8A8,8 0 0,1 8,0Z" style="opacity: 0.8; stroke-width: 0px; fill: rgb(72, 33, 114); fill-opacity: 1;"/><path class="point" transform="translate(470.14,155.68)" d="M8,0A8,8 0 1,1 0,-8A8,8 0 0,1 8,0Z" style="opacity: 0.8; stroke-width: 0px; fill: rgb(34, 143, 140); fill-opacity: 1;"/><path class="point" transform="translate(487.22,176.88)" d="M8,0A8,8 0 1,1 0,-8A8,8 0 0,1 8,0Z" style="opacity: 0.8; stroke-width: 0px; fill: rgb(73, 192, 110); fill-opacity: 1;"/><path class="point" transform="translate(186.06,32.98)" d="M8,0A8,8 0 1,1 0,-8A8,8 0 0,1 8,0Z" style="opacity: 0.8; stroke-width: 0px; fill: rgb(72, 34, 114); fill-opacity: 1;"/><path class="point" transform="translate(173.33,274.17)" d="M8,0A8,8 0 1,1 0,-8A8,8 0 0,1 8,0Z" style="opacity: 0.8; stroke-width: 0px; fill: rgb(68, 1, 84); fill-opacity: 1;"/><path class="point" transform="translate(378.79,236.86)" d="M8,0A8,8 0 1,1 0,-8A8,8 0 0,1 8,0Z" style="opacity: 0.8; stroke-width: 0px; fill: rgb(52, 97, 141); fill-opacity: 1;"/><path class="point" transform="translate(304.46,89.17)" d="M8,0A8,8 0 1,1 0,-8A8,8 0 0,1 8,0Z" style="opacity: 0.8; stroke-width: 0px; fill: rgb(68, 55, 129); fill-opacity: 1;"/><path class="point" transform="translate(93.87,49.08)" d="M8,0A8,8 0 1,1 0,-8A8,8 0 0,1 8,0Z" style="opacity: 0.8; stroke-width: 0px; fill: rgb(72, 23, 105); fill-opacity: 1;"/><path class="point" transform="translate(212.17,104.76)" d="M8,0A8,8 0 1,1 0,-8A8,8 0 0,1 8,0Z" style="opacity: 0.8; stroke-width: 0px; fill: rgb(71, 41, 120); fill-opacity: 1;"/><path class="point" transform="translate(54.73,111.91)" d="M8,0A8,8 0 1,1 0,-8A8,8 0 0,1 8,0Z" style="opacity: 0.8; stroke-width: 0px; fill: rgb(70, 14, 96); fill-opacity: 1;"/><path class="point" transform="translate(140.63,270.94)" d="M8,0A8,8 0 1,1 0,-8A8,8 0 0,1 8,0Z" style="opacity: 0.8; stroke-width: 0px; fill: rgb(68, 2, 85); fill-opacity: 1;"/><path class="point" transform="translate(351.22,132.44)" d="M8,0A8,8 0 1,1 0,-8A8,8 0 0,1 8,0Z" style="opacity: 0.8; stroke-width: 0px; fill: rgb(64, 70, 136); fill-opacity: 1;"/><path class="point" transform="translate(152.58,255.89)" d="M8,0A8,8 0 1,1 0,-8A8,8 0 0,1 8,0Z" style="opacity: 0.8; stroke-width: 0px; fill: rgb(68, 2, 85); fill-opacity: 1;"/><path class="point" transform="translate(38.74,93.85)" d="M8,0A8,8 0 1,1 0,-8A8,8 0 0,1 8,0Z" style="opacity: 0.8; stroke-width: 0px; fill: rgb(70, 15, 98); fill-opacity: 1;"/><path class="point" transform="translate(103.9,95.37)" d="M8,0A8,8 0 1,1 0,-8A8,8 0 0,1 8,0Z" style="opacity: 0.8; stroke-width: 0px; fill: rgb(71, 20, 102); fill-opacity: 1;"/><path class="point" transform="translate(356.33,249.44)" d="M8,0A8,8 0 1,1 0,-8A8,8 0 0,1 8,0Z" style="opacity: 0.8; stroke-width: 0px; fill: rgb(61, 77, 138); fill-opacity: 1;"/><path class="point" transform="translate(168.56,91.7)" d="M8,0A8,8 0 1,1 0,-8A8,8 0 0,1 8,0Z" style="opacity: 0.8; stroke-width: 0px; fill: rgb(72, 25, 107); fill-opacity: 1;"/><path class="point" transform="translate(331.91,249.98)" d="M8,0A8,8 0 1,1 0,-8A8,8 0 0,1 8,0Z" style="opacity: 0.8; stroke-width: 0px; fill: rgb(67, 61, 132); fill-opacity: 1;"/><path class="point" transform="translate(424.71,217.31)" d="M8,0A8,8 0 1,1 0,-8A8,8 0 0,1 8,0Z" style="opacity: 0.8; stroke-width: 0px; fill: rgb(43, 116, 142); fill-opacity: 1;"/><path class="point" transform="translate(93.19,212.35)" d="M8,0A8,8 0 1,1 0,-8A8,8 0 0,1 8,0Z" style="opacity: 0.8; stroke-width: 0px; fill: rgb(69, 5, 88); fill-opacity: 1;"/><path class="point" transform="translate(37,124.72)" d="M8,0A8,8 0 1,1 0,-8A8,8 0 0,1 8,0Z" style="opacity: 0.8; stroke-width: 0px; fill: rgb(70, 15, 98); fill-opacity: 1;"/><path class="point" transform="translate(344.83,212.78)" d="M8,0A8,8 0 1,1 0,-8A8,8 0 0,1 8,0Z" style="opacity: 0.8; stroke-width: 0px; fill: rgb(61, 77, 138); fill-opacity: 1;"/><path class="point" transform="translate(415.23,289.48)" d="M8,0A8,8 0 1,1 0,-8A8,8 0 0,1 8,0Z" style="opacity: 0.8; stroke-width: 0px; fill: rgb(32, 161, 135); fill-opacity: 1;"/><path class="point" transform="translate(291.26,213.27)" d="M8,0A8,8 0 1,1 0,-8A8,8 0 0,1 8,0Z" style="opacity: 0.8; stroke-width: 0px; fill: rgb(70, 50, 126); fill-opacity: 1;"/><path class="point" transform="translate(200.79,56.83)" d="M8,0A8,8 0 1,1 0,-8A8,8 0 0,1 8,0Z" style="opacity: 0.8; stroke-width: 0px; fill: rgb(71, 37, 117); fill-opacity: 1;"/><path class="point" transform="translate(383.24,209.08)" d="M8,0A8,8 0 1,1 0,-8A8,8 0 0,1 8,0Z" style="opacity: 0.8; stroke-width: 0px; fill: rgb(50, 102, 141); fill-opacity: 1;"/><path class="point" transform="translate(282.74,98.38)" d="M8,0A8,8 0 1,1 0,-8A8,8 0 0,1 8,0Z" style="opacity: 0.8; stroke-width: 0px; fill: rgb(69, 54, 128); fill-opacity: 1;"/><path class="point" transform="translate(46.27,154.64)" d="M8,0A8,8 0 1,1 0,-8A8,8 0 0,1 8,0Z" style="opacity: 0.8; stroke-width: 0px; fill: rgb(70, 11, 94); fill-opacity: 1;"/><path class="point" transform="translate(82.53,77.22)" d="M8,0A8,8 0 1,1 0,-8A8,8 0 0,1 8,0Z" style="opacity: 0.8; stroke-width: 0px; fill: rgb(71, 19, 101); fill-opacity: 1;"/><path class="point" transform="translate(393.93,184.46)" d="M8,0A8,8 0 1,1 0,-8A8,8 0 0,1 8,0Z" style="opacity: 0.8; stroke-width: 0px; fill: rgb(57, 86, 139); fill-opacity: 1;"/><path class="point" transform="translate(401.71,215.24)" d="M8,0A8,8 0 1,1 0,-8A8,8 0 0,1 8,0Z" style="opacity: 0.8; stroke-width: 0px; fill: rgb(52, 97, 141); fill-opacity: 1;"/><path class="point" transform="translate(490.51,232.78)" d="M8,0A8,8 0 1,1 0,-8A8,8 0 0,1 8,0Z" style="opacity: 0.8; stroke-width: 0px; fill: rgb(253, 231, 37); fill-opacity: 1;"/><path class="point" transform="translate(69.51,162.56)" d="M8,0A8,8 0 1,1 0,-8A8,8 0 0,1 8,0Z" style="opacity: 0.8; stroke-width: 0px; fill: rgb(69, 6, 88); fill-opacity: 1;"/><path class="point" transform="translate(261.85,146.67)" d="M8,0A8,8 0 1,1 0,-8A8,8 0 0,1 8,0Z" style="opacity: 0.8; stroke-width: 0px; fill: rgb(71, 46, 124); fill-opacity: 1;"/><path class="point" transform="translate(157.77,26)" d="M8,0A8,8 0 1,1 0,-8A8,8 0 0,1 8,0Z" style="opacity: 0.8; stroke-width: 0px; fill: rgb(72, 29, 110); fill-opacity: 1;"/><path class="point" transform="translate(63.09,133.16)" d="M8,0A8,8 0 1,1 0,-8A8,8 0 0,1 8,0Z" style="opacity: 0.8; stroke-width: 0px; fill: rgb(70, 14, 96); fill-opacity: 1;"/><path class="point" transform="translate(132.08,251.16)" d="M8,0A8,8 0 1,1 0,-8A8,8 0 0,1 8,0Z" style="opacity: 0.8; stroke-width: 0px; fill: rgb(68, 2, 85); fill-opacity: 1;"/><path class="point" transform="translate(372.86,167.49)" d="M8,0A8,8 0 1,1 0,-8A8,8 0 0,1 8,0Z" style="opacity: 0.8; stroke-width: 0px; fill: rgb(55, 92, 140); fill-opacity: 1;"/><path class="point" transform="translate(445.01,294)" d="M8,0A8,8 0 1,1 0,-8A8,8 0 0,1 8,0Z" style="opacity: 0.8; stroke-width: 0px; fill: rgb(193, 223, 37); fill-opacity: 1;"/><path class="point" transform="translate(426.53,256.98)" d="M8,0A8,8 0 1,1 0,-8A8,8 0 0,1 8,0Z" style="opacity: 0.8; stroke-width: 0px; fill: rgb(31, 161, 136); fill-opacity: 1;"/><path class="point" transform="translate(281.39,187.07)" d="M8,0A8,8 0 1,1 0,-8A8,8 0 0,1 8,0Z" style="opacity: 0.8; stroke-width: 0px; fill: rgb(70, 50, 126); fill-opacity: 1;"/><path class="point" transform="translate(258,116.58)" d="M8,0A8,8 0 1,1 0,-8A8,8 0 0,1 8,0Z" style="opacity: 0.8; stroke-width: 0px; fill: rgb(70, 50, 126); fill-opacity: 1;"/><path class="point" transform="translate(444.91,267.59)" d="M8,0A8,8 0 1,1 0,-8A8,8 0 0,1 8,0Z" style="opacity: 0.8; stroke-width: 0px; fill: rgb(119, 208, 83); fill-opacity: 1;"/><path class="point" transform="translate(131.13,76.07)" d="M8,0A8,8 0 1,1 0,-8A8,8 0 0,1 8,0Z" style="opacity: 0.8; stroke-width: 0px; fill: rgb(72, 27, 109); fill-opacity: 1;"/><path class="point" transform="translate(77.84,104.08)" d="M8,0A8,8 0 1,1 0,-8A8,8 0 0,1 8,0Z" style="opacity: 0.8; stroke-width: 0px; fill: rgb(71, 16, 98); fill-opacity: 1;"/><path class="point" transform="translate(350.32,272.44)" d="M8,0A8,8 0 1,1 0,-8A8,8 0 0,1 8,0Z" style="opacity: 0.8; stroke-width: 0px; fill: rgb(63, 73, 136); fill-opacity: 1;"/><path class="point" transform="translate(386.92,259.23)" d="M8,0A8,8 0 1,1 0,-8A8,8 0 0,1 8,0Z" style="opacity: 0.8; stroke-width: 0px; fill: rgb(52, 96, 141); fill-opacity: 1;"/><path class="point" transform="translate(238.89,126.57)" d="M8,0A8,8 0 1,1 0,-8A8,8 0 0,1 8,0Z" style="opacity: 0.8; stroke-width: 0px; fill: rgb(70, 49, 125); fill-opacity: 1;"/><path class="point" transform="translate(134.45,27.26)" d="M8,0A8,8 0 1,1 0,-8A8,8 0 0,1 8,0Z" style="opacity: 0.8; stroke-width: 0px; fill: rgb(72, 31, 112); fill-opacity: 1;"/><path class="point" transform="translate(314.17,228.56)" d="M8,0A8,8 0 1,1 0,-8A8,8 0 0,1 8,0Z" style="opacity: 0.8; stroke-width: 0px; fill: rgb(68, 58, 131); fill-opacity: 1;"/><path class="point" transform="translate(330.93,139.91)" d="M8,0A8,8 0 1,1 0,-8A8,8 0 0,1 8,0Z" style="opacity: 0.8; stroke-width: 0px; fill: rgb(64, 69, 135); fill-opacity: 1;"/><path class="point" transform="translate(301.7,190.77)" d="M8,0A8,8 0 1,1 0,-8A8,8 0 0,1 8,0Z" style="opacity: 0.8; stroke-width: 0px; fill: rgb(68, 55, 129); fill-opacity: 1;"/><path class="point" transform="translate(154.46,72.29)" d="M8,0A8,8 0 1,1 0,-8A8,8 0 0,1 8,0Z" style="opacity: 0.8; stroke-width: 0px; fill: rgb(72, 30, 110); fill-opacity: 1;"/><path class="point" transform="translate(466.51,276.92)" d="M8,0A8,8 0 1,1 0,-8A8,8 0 0,1 8,0Z" style="opacity: 0.8; stroke-width: 0px; fill: rgb(87, 198, 102); fill-opacity: 1;"/><path class="point" transform="translate(162.14,238.74)" d="M8,0A8,8 0 1,1 0,-8A8,8 0 0,1 8,0Z" style="opacity: 0.8; stroke-width: 0px; fill: rgb(68, 2, 85); fill-opacity: 1;"/><path class="point" transform="translate(184.88,112.49)" d="M8,0A8,8 0 1,1 0,-8A8,8 0 0,1 8,0Z" style="opacity: 0.8; stroke-width: 0px; fill: rgb(72, 34, 114); fill-opacity: 1;"/><path class="point" transform="translate(408.36,241.51)" d="M8,0A8,8 0 1,1 0,-8A8,8 0 0,1 8,0Z" style="opacity: 0.8; stroke-width: 0px; fill: rgb(44, 114, 142); fill-opacity: 1;"/><path class="point" transform="translate(450.24,217.5)" d="M8,0A8,8 0 1,1 0,-8A8,8 0 0,1 8,0Z" style="opacity: 0.8; stroke-width: 0px; fill: rgb(32, 151, 138); fill-opacity: 1;"/><path class="point" transform="translate(438.28,235.39)" d="M8,0A8,8 0 1,1 0,-8A8,8 0 0,1 8,0Z" style="opacity: 0.8; stroke-width: 0px; fill: rgb(32, 152, 138); fill-opacity: 1;"/><path class="point" transform="translate(366.98,191.91)" d="M8,0A8,8 0 1,1 0,-8A8,8 0 0,1 8,0Z" style="opacity: 0.8; stroke-width: 0px; fill: rgb(59, 81, 139); fill-opacity: 1;"/><path class="point" transform="translate(118.1,49.06)" d="M8,0A8,8 0 1,1 0,-8A8,8 0 0,1 8,0Z" style="opacity: 0.8; stroke-width: 0px; fill: rgb(72, 24, 106); fill-opacity: 1;"/><path class="point" transform="translate(479.23,255.45)" d="M8,0A8,8 0 1,1 0,-8A8,8 0 0,1 8,0Z" style="opacity: 0.8; stroke-width: 0px; fill: rgb(129, 211, 77); fill-opacity: 1;"/><path class="point" transform="translate(214.76,75.26)" d="M8,0A8,8 0 1,1 0,-8A8,8 0 0,1 8,0Z" style="opacity: 0.8; stroke-width: 0px; fill: rgb(72, 32, 113); fill-opacity: 1;"/><path class="point" transform="translate(456.61,248.28)" d="M8,0A8,8 0 1,1 0,-8A8,8 0 0,1 8,0Z" style="opacity: 0.8; stroke-width: 0px; fill: rgb(37, 169, 131); fill-opacity: 1;"/><path class="point" transform="translate(478.22,204.2)" d="M8,0A8,8 0 1,1 0,-8A8,8 0 0,1 8,0Z" style="opacity: 0.8; stroke-width: 0px; fill: rgb(53, 182, 121); fill-opacity: 1;"/><path class="point" transform="translate(391.03,161.02)" d="M8,0A8,8 0 1,1 0,-8A8,8 0 0,1 8,0Z" style="opacity: 0.8; stroke-width: 0px; fill: rgb(57, 87, 140); fill-opacity: 1;"/><path class="point" transform="translate(63.53,59.67)" d="M8,0A8,8 0 1,1 0,-8A8,8 0 0,1 8,0Z" style="opacity: 0.8; stroke-width: 0px; fill: rgb(70, 15, 97); fill-opacity: 1;"/><path class="point" transform="translate(467.99,228.63)" d="M8,0A8,8 0 1,1 0,-8A8,8 0 0,1 8,0Z" style="opacity: 0.8; stroke-width: 0px; fill: rgb(37, 170, 130); fill-opacity: 1;"/><path class="point" transform="translate(164.85,49.14)" d="M8,0A8,8 0 1,1 0,-8A8,8 0 0,1 8,0Z" style="opacity: 0.8; stroke-width: 0px; fill: rgb(72, 30, 111); fill-opacity: 1;"/></g><g class="text"/></g></g></g><g class="overplot"/><path class="xlines-above crisp" d="M0,0" style="fill: none;"/><path class="ylines-above crisp" d="M0,0" style="fill: none;"/><g class="overlines-above"/><g class="xaxislayer-above"><g class="xtick"><text text-anchor="middle" x="0" y="433" transform="translate(178.25,0)" style="font-family: 'Open Sans', verdana, arial, sans-serif; font-size: 12px; fill: rgb(68, 68, 68); fill-opacity: 1; white-space: pre;">−50</text></g><g class="xtick"><text text-anchor="middle" x="0" y="433" transform="translate(342.9,0)" style="font-family: 'Open Sans', verdana, arial, sans-serif; font-size: 12px; fill: rgb(68, 68, 68); fill-opacity: 1; white-space: pre;">0</text></g><g class="xtick"><text text-anchor="middle" x="0" y="433" transform="translate(507.54,0)" style="font-family: 'Open Sans', verdana, arial, sans-serif; font-size: 12px; fill: rgb(68, 68, 68); fill-opacity: 1; white-space: pre;">50</text></g></g><g class="yaxislayer-above"><g class="ytick"><text text-anchor="end" x="79" y="4.199999999999999" transform="translate(0,384.16)" style="font-family: 'Open Sans', verdana, arial, sans-serif; font-size: 12px; fill: rgb(68, 68, 68); fill-opacity: 1; white-space: pre;">−30</text></g><g class="ytick"><text text-anchor="end" x="79" y="4.199999999999999" transform="translate(0,346.35)" style="font-family: 'Open Sans', verdana, arial, sans-serif; font-size: 12px; fill: rgb(68, 68, 68); fill-opacity: 1; white-space: pre;">−20</text></g><g class="ytick"><text text-anchor="end" x="79" y="4.199999999999999" transform="translate(0,308.53999999999996)" style="font-family: 'Open Sans', verdana, arial, sans-serif; font-size: 12px; fill: rgb(68, 68, 68); fill-opacity: 1; white-space: pre;">−10</text></g><g class="ytick"><text text-anchor="end" x="79" y="4.199999999999999" transform="translate(0,270.74)" style="font-family: 'Open Sans', verdana, arial, sans-serif; font-size: 12px; fill: rgb(68, 68, 68); fill-opacity: 1; white-space: pre;">0</text></g><g class="ytick"><text text-anchor="end" x="79" y="4.199999999999999" transform="translate(0,232.93)" style="font-family: 'Open Sans', verdana, arial, sans-serif; font-size: 12px; fill: rgb(68, 68, 68); fill-opacity: 1; white-space: pre;">10</text></g><g class="ytick"><text text-anchor="end" x="79" y="4.199999999999999" transform="translate(0,195.12)" style="font-family: 'Open Sans', verdana, arial, sans-serif; font-size: 12px; fill: rgb(68, 68, 68); fill-opacity: 1; white-space: pre;">20</text></g><g class="ytick"><text text-anchor="end" x="79" y="4.199999999999999" transform="translate(0,157.31)" style="font-family: 'Open Sans', verdana, arial, sans-serif; font-size: 12px; fill: rgb(68, 68, 68); fill-opacity: 1; white-space: pre;">30</text></g><g class="ytick"><text text-anchor="end" x="79" y="4.199999999999999" transform="translate(0,119.5)" style="font-family: 'Open Sans', verdana, arial, sans-serif; font-size: 12px; fill: rgb(68, 68, 68); fill-opacity: 1; white-space: pre;">40</text></g></g><g class="overaxes-above"/></g></g><g class="polarlayer"/><g class="ternarylayer"/><g class="geolayer"/><g class="pielayer"/><g class="sunburstlayer"/><g class="glimages"/><defs id="topdefs-44f1e0"><g class="clips"/></defs><g class="layer-above"><g class="imagelayer"/><g class="shapelayer"/></g><g class="infolayer"><g class="g-gtitle"/><g class="g-xtitle"/><g class="g-ytitle"/></g></svg>